<svg class="svg-icon" style="width: 1em;height: 1em;vertical-align: middle;fill: currentColor;overflow: hidden;" viewBox="0 0 1024 1024" version="1.1" xmlns="http://www.w3.org/2000/svg"><path d="M923.136 969.557333H193.024v-909.653333h521.386667l208.725333 207.701333z" fill="#7CCDFF" /><path d="M912.896 253.952l2.56 671.914667c0 15.530667-12.458667 27.989333-27.989333 27.989333H237.909333c-15.530667 0-27.989333-12.458667-27.989333-27.989333V96.938667c0-15.530667 12.458667-27.989333 27.989333-27.989334l493.397334-1.024-38.912-39.936H239.274667c-36.352 0-65.706667 29.354667-65.706667 65.706667v835.584c0 36.352 29.354667 65.706667 65.706667 65.706667h646.826666c36.352 0 65.706667-29.354667 65.706667-65.706667V293.888l-38.912-39.936z" fill="#4191FB" /><path d="M692.394667 222.72c0 39.424 31.914667 71.338667 71.338666 71.338667h188.245334L692.394667 27.989333v194.730667z" fill="#C7E2FF" /><path d="M557.568 482.304H158.72c-50.346667 0-91.136-40.789333-91.136-91.136v-60.245333c0-50.346667 40.789333-91.136 91.136-91.136h398.848c50.346667 0 91.136 40.789333 91.136 91.136v60.245333c0 50.346667-40.789333 91.136-91.136 91.136z" fill="#4191FB" /><path d="M105.984 287.573333h54.272l37.888 112.128 37.376-112.128h52.736l-62.464 155.818667h-56.32l-63.488-155.818667zM409.088 379.562667l45.568 12.8c-3.072 11.776-7.850667 21.674667-14.506667 29.696-6.656 7.850667-14.677333 13.994667-24.405333 17.92-9.728 4.096-22.186667 5.973333-37.205333 5.973333-18.261333 0-33.28-2.389333-44.714667-7.338667-11.605333-4.949333-21.504-13.653333-30.037333-25.941333-8.362667-12.458667-12.629333-28.16-12.629334-47.616 0-25.770667 7.338667-45.568 22.186667-59.392s35.669333-20.821333 62.805333-20.821333c21.162667 0 37.888 3.925333 50.005334 11.946666 12.117333 7.850667 21.162667 20.138667 26.965333 36.522667l-45.909333 9.386667c-1.536-4.778667-3.242667-8.192-5.12-10.410667-2.901333-3.754667-6.485333-6.485333-10.581334-8.533333-4.266667-2.048-8.874667-2.901333-14.165333-2.901334-11.776 0-20.821333 4.437333-27.136 13.141334-4.778667 6.485333-7.168 16.725333-7.168 30.72 0 17.237333 2.901333 29.013333 8.533333 35.498666s13.653333 9.557333 23.893334 9.557334c9.898667 0 17.408-2.56 22.528-7.68s8.704-12.629333 11.093333-22.528zM480.085333 287.573333h128.512v33.450667h-76.288V348.16H597.333333v31.402667h-65.194666v63.658666h-52.224v-155.648h0.170666z" fill="#FFFFFF" /><path d="M796.842667 713.898667H540.330667c-15.701333 0-28.330667-12.8-28.330667-28.330667v-5.290667c0-15.701333 12.8-28.330667 28.330667-28.330666h256.341333c15.701333 0 28.330667 12.8 28.330667 28.330666v5.290667c0.170667 15.530667-12.458667 28.330667-28.16 28.330667z" fill="#4191FB" /><path d="M796.842667 844.288H540.330667c-15.701333 0-28.330667-12.8-28.330667-28.330667V810.666667c0-15.701333 12.8-28.330667 28.330667-28.330667h256.341333c15.701333 0 28.330667 12.8 28.330667 28.330667v5.290666c0.170667 15.701333-12.458667 28.330667-28.16 28.330667z" fill="#4191FB" /><path d="M407.552 735.573333c28.330667-5.802667 49.664-30.890667 49.664-60.928 0-34.304-27.818667-62.293333-62.293333-62.293333-34.304 0-62.293333 27.818667-62.293334 62.293333 0 30.037333 21.333333 55.125333 49.664 60.928-47.445333 6.144-83.968 46.762667-83.968 95.914667 0 6.144 0.512 12.288 1.706667 18.261333 27.648-11.605333 60.074667-18.261333 94.890667-18.261333s67.413333 6.656 94.890666 18.261333c1.194667-5.973333 1.706667-11.946667 1.706667-18.261333 0.170667-49.322667-36.522667-89.770667-83.968-95.914667z" fill="#4191FB" /></svg>